<?xml version="1.0" encoding="utf-8"?>
<!-- Generator: Adobe Illustrator 23.0.3, SVG Export Plug-In . SVG Version: 6.00 Build 0)  -->
<svg version="1.1" id="Layer_1" xmlns="http://www.w3.org/2000/svg" xmlns:xlink="http://www.w3.org/1999/xlink" x="0px" y="0px"
	 viewBox="0 0 777 225" style="enable-background:new 0 0 777 225;" xml:space="preserve">
<style type="text/css">
	.st0{fill:#221E1F;}
	.st1{fill:#231F20;}
	.st2{fill:url(#SVGID_1_);}
	.st3{fill:url(#SVGID_2_);}
	.st4{fill:url(#SVGID_3_);}
</style>
<g>
	<g>
		<path class="st0" d="M248.7,154.5c-3.1,0.8-6.2,1.2-9.2,1.2c-4.6,0-8.8-0.8-12.4-2.3c-3.6-1.5-6.7-3.6-9.2-6.3
			c-2.5-2.7-4.4-5.8-5.7-9.5c-1.3-3.6-2-7.6-2-11.9c0-4.3,0.7-8.4,2.2-12.2c1.5-3.8,3.6-7.1,6.3-9.9c2.7-2.8,6-5,9.9-6.6
			c3.9-1.6,8.2-2.4,12.9-2.4c3.3,0,6.3,0.3,8.9,1c2.6,0.7,4.8,1.4,6.5,2.4l-0.2,9c-2.4-1.4-4.7-2.5-7.1-3.2c-2.4-0.7-5.1-1.1-8-1.1
			c-3.4,0-6.5,0.6-9.1,1.8c-2.6,1.2-4.8,2.8-6.6,4.8c-1.8,2-3.2,4.4-4.1,7.1c-0.9,2.7-1.4,5.6-1.4,8.6c0,3.2,0.5,6.2,1.4,8.9
			c0.9,2.7,2.3,5.1,4.1,7.1c1.8,2,3.9,3.5,6.5,4.7c2.6,1.1,5.4,1.7,8.6,1.7c2.7,0,5.2-0.3,7.6-1c2.4-0.7,4.7-1.6,6.8-2.8l2.7,7.1
			C254.8,152.3,251.7,153.7,248.7,154.5z"/>
		<path class="st0" d="M313.5,142.2c-0.9,2.7-2.4,5.1-4.3,7.1c-2,2.1-4.5,3.6-7.5,4.7c-3,1.1-6.7,1.7-10.9,1.7
			c-4.1,0-7.6-0.5-10.5-1.5c-2.9-1-5.3-2.4-7.1-4.2c-2.2-2.1-3.8-4.7-4.6-7.7c-0.8-3-1.2-6.1-1.2-9.2V95.2h9.5v37.4
			c0,2.1,0.3,4.1,0.9,6.1c0.6,1.9,1.6,3.6,2.9,5c1.1,1.2,2.6,2.2,4.3,2.8c1.7,0.7,3.7,1,6.1,1c2.6,0,4.9-0.3,6.7-1
			c1.8-0.7,3.3-1.6,4.4-2.8c1.2-1.3,2.1-2.8,2.6-4.6c0.5-1.8,0.8-3.8,0.8-5.9v-38h9.5v38.1C314.9,136.5,314.4,139.4,313.5,142.2z"/>
		<path class="st0" d="M365.8,143.4c-0.8,2.1-2,4-3.6,5.7c-1.7,1.7-3.8,3.1-6.5,4.2c-2.7,1.1-5.9,1.6-9.7,1.6h-17.5V95.2h18.1
			c2.8,0,5.3,0.4,7.4,1.3c2.1,0.9,3.8,2,5.2,3.4c1.4,1.4,2.4,3,3,4.7c0.7,1.8,1,3.5,1,5.2c0,2.8-0.6,5.3-1.9,7.6
			c-1.3,2.3-3.2,4-5.7,5.1v0.1c1.6,0.4,3,1,4.4,1.8c1.4,0.8,2.6,1.9,3.6,3.2c1,1.3,1.8,2.7,2.4,4.3c0.6,1.6,0.9,3.3,0.9,5.2
			C367,139.2,366.6,141.3,365.8,143.4z M337.9,103.3v17h6.8c1.1,0,2.2-0.2,3.2-0.6c1.1-0.4,2-1,2.8-1.7c0.8-0.8,1.5-1.7,2-2.7
			c0.5-1.1,0.8-2.3,0.8-3.7c0-2.5-0.8-4.6-2.3-6c-1.5-1.5-3.9-2.2-7.2-2.2H337.9z M354.2,130.9c-2-1.6-4.7-2.4-8.2-2.4h-8.1v18.2
			h7.6c3.9,0,6.8-0.9,8.7-2.6c1.9-1.7,2.9-4,2.9-6.9C357.1,134.6,356.1,132.6,354.2,130.9z"/>
		<path class="st0" d="M376.8,154.8V95.2h31.8l-2.9,8.1h-19.4v16.9h19.4v8.1h-19.4v18.3h22.4v8.1H376.8z"/>
		<path class="st0" d="M427,154.3c-1.1,1.1-2.5,1.7-4.2,1.7c-1.6,0-3-0.6-4.1-1.7c-1.1-1.1-1.7-2.6-1.7-4.3c0-1.7,0.6-3.1,1.7-4.3
			c1.1-1.1,2.5-1.7,4.1-1.7c1.7,0,3.1,0.6,4.2,1.7c1.1,1.1,1.7,2.6,1.7,4.3C428.7,151.7,428.1,153.1,427,154.3z"/>
	</g>
	<g>
		<g>
			<path class="st1" d="M454.3,172.6l9.2-52h11.9c6.1,0,10.6,1.5,13.5,4.6c2.9,3,3.8,7.3,2.9,12.8c-0.9,5.2-3.3,9.4-7.1,12.7
				c-3.8,3.3-8.2,5-13.1,5c-2.2,0-4.5-0.5-7-1.5l-3.3,18.4H454.3z M474.1,126.9h-4.8l-3.7,21.2c1.9,1.1,4,1.6,6.3,1.6
				c3.2,0,6-1.1,8.4-3.3c2.4-2.2,3.9-5.1,4.6-8.6c0.4-2.2,0.3-4.2-0.4-6c-0.7-1.7-1.7-3-3.3-3.8
				C479.7,127.3,477.3,126.9,474.1,126.9z"/>
			<path class="st1" d="M505.6,102.7h6.8l-9.2,52.3h-6.8L505.6,102.7z"/>
			<path class="st1" d="M538.4,134.3l-2.6,14.7c-0.2,1.2,0.1,1.8,0.9,1.8c0.8,0,2.2-0.6,4.2-1.8l-0.7,4.2c-1.7,1-3.1,1.7-4.1,2
				c-1,0.4-2,0.5-3,0.5c-2.9,0-4.4-1.1-4.6-3.4c-3.3,2.2-6.6,3.4-9.8,3.4c-2.4,0-4.3-0.8-5.6-2.4c-1.3-1.6-1.8-3.6-1.3-6
				c0.4-2.2,1.5-4.1,3.4-5.8c1.9-1.7,4.3-3.1,7.4-4.1l9.3-3l0.3-1.8c0.7-4.1-1-6.2-5.1-6.2c-3.7,0-7.7,1.9-11.9,5.8l1.3-7.5
				c3.2-3.1,7.3-4.7,12.3-4.7c3.7,0,6.5,1,8.4,2.9c0.6,0.6,1.2,1.5,1.6,2.5c0.4,1,0.6,2.1,0.6,3.1
				C539.1,129.5,538.9,131.4,538.4,134.3z M529.2,148.2L531,138l-4.9,1.8c-2.5,0.9-4.3,1.9-5.4,2.8c-1.1,0.9-1.8,2.1-2.1,3.5
				c-0.3,1.4,0,2.6,0.8,3.5c0.8,0.9,1.9,1.3,3.3,1.3C524.9,150.9,527,150,529.2,148.2z"/>
			<path class="st1" d="M570,120.6h7.7l-33.6,52h-7.6l16.1-25l-8.5-27.1h7.8l5.9,19.5L570,120.6z"/>
			<path class="st1" d="M630.3,130l-4.4,25H619l3.4-19.2c0.7-3.8,0.6-6.5-0.1-8c-0.8-1.5-2.4-2.3-5-2.3c-1.4,0-2.8,0.3-4.1,1
				c-1.3,0.7-2.9,1.8-4.7,3.4l-4.4,25h-6.8l6.1-34.5h6.8l-0.8,4.5c4.1-3.5,7.8-5.2,11.1-5.2c4.4,0,7.4,2.1,9.1,6.2
				c4.4-4.2,8.6-6.3,12.5-6.3c3.3,0,5.9,1.2,7.6,3.7c1.7,2.4,2.2,6.2,1.3,11.2l-3.6,20.3h-6.8l3.6-20.4c0.5-2.9,0.3-5.1-0.6-6.6
				c-0.9-1.5-2.5-2.3-4.7-2.3C636.2,125.7,633.3,127.2,630.3,130z"/>
			<path class="st1" d="M679.4,120.5c5.2,0,9.3,1.7,12.2,5.1c2.9,3.4,3.9,7.6,3,12.8c-0.9,5-3.4,9.1-7.5,12.4
				c-4.1,3.3-8.8,4.9-14.2,4.9c-5.2,0-9.2-1.7-12.1-5c-2.9-3.3-3.9-7.5-3-12.5c0.9-5,3.4-9.2,7.5-12.6
				C669.4,122.2,674.1,120.5,679.4,120.5z M677.9,126.6c-3.3,0-6.1,1.1-8.6,3.2c-2.5,2.1-4,4.9-4.6,8.2c-0.6,3.3,0,6,1.8,8.1
				c1.8,2.1,4.4,3.1,7.7,3.1c3.3,0,6.3-1.1,8.8-3.2c2.5-2.1,4.1-4.8,4.6-8.1c0.6-3.3-0.1-6-1.9-8.1
				C683.9,127.7,681.3,126.6,677.9,126.6z"/>
			<path class="st1" d="M712.5,120.6l-1.4,7.9l0.5-0.6c4.2-5.3,8-8,11.3-8c2.6,0,5,1.3,7.4,3.9l-4.7,6c-2-2.2-4-3.4-6-3.4
				c-2.2,0-4.3,1-6.3,3.1c-2,2.1-3.2,4.6-3.7,7.5l-3.2,18h-6.9l6.1-34.5H712.5z"/>
			<path class="st1" d="M760.3,138.4h-24.2c-0.4,3.3,0.2,5.9,1.9,7.9c1.7,1.9,4.1,2.9,7.4,2.9c4.5,0,8.9-1.4,13.2-4.2l-1.2,6.7
				c-2.3,1.4-4.6,2.4-6.8,3c-2.2,0.6-4.6,0.9-7.4,0.9c-3.8,0-6.7-0.8-8.8-2.4c-2.1-1.6-3.6-3.7-4.5-6.4c-0.9-2.7-1.1-5.7-0.5-9.2
				c0.9-5.2,3.2-9.5,6.7-12.8c3.6-3.3,7.7-4.9,12.4-4.9c4.6,0,7.9,1.6,10.1,4.8c2.2,3.2,2.8,7.5,1.8,12.9L760.3,138.4z M737,134.3
				h17.3c0.3-2.7-0.1-4.8-1.3-6.3c-1.2-1.5-3-2.2-5.5-2.2c-2.4,0-4.6,0.7-6.4,2.2C739.3,129.5,737.9,131.6,737,134.3z"/>
		</g>
	</g>
	<g>
		<linearGradient id="SVGID_1_" gradientUnits="userSpaceOnUse" x1="176.1646" y1="29.2309" x2="190.308" y2="43.3743">
			<stop  offset="0" style="stop-color:#ED882B"/>
			<stop  offset="0.435" style="stop-color:#ED8529"/>
			<stop  offset="0.7788" style="stop-color:#EF7B24"/>
			<stop  offset="1" style="stop-color:#F0701E"/>
		</linearGradient>
		<path class="st2" d="M190.8,42.4c-0.3,0.8-0.9,1.4-1.5,2c-0.7,0.6-1.6,1-2.6,1.4c-1.1,0.3-2.3,0.5-3.7,0.5c-1.1,0-2.1-0.1-3-0.3
			c-0.9-0.2-1.8-0.5-2.6-0.8l0.9-2.4c0.7,0.3,1.5,0.5,2.2,0.7c0.7,0.2,1.6,0.3,2.5,0.3c0.6,0,1.1-0.1,1.7-0.2
			c0.6-0.1,1.1-0.3,1.6-0.6c0.5-0.3,0.8-0.6,1.1-1.1c0.3-0.4,0.4-0.9,0.4-1.6c0-0.5-0.1-0.9-0.3-1.3c-0.2-0.4-0.4-0.7-0.8-1
			c-0.4-0.3-0.9-0.5-1.5-0.6c-0.6-0.2-1.4-0.2-2.3-0.2h-2.8v-2.5l2.2-0.1c1.7,0,3-0.4,3.7-1c0.8-0.6,1.2-1.4,1.2-2.3
			c0-0.8-0.3-1.4-0.9-1.9c-0.6-0.5-1.4-0.8-2.5-0.8c-1.1,0-2,0.2-2.9,0.5c-0.9,0.3-1.6,0.6-2.3,0.9l-0.8-2.5
			c0.8-0.4,1.7-0.7,2.8-1.1c1.1-0.4,2.4-0.6,3.9-0.6c1,0,1.9,0.1,2.7,0.4c0.8,0.3,1.4,0.6,1.9,1.1c0.5,0.5,0.9,1,1.1,1.6
			c0.2,0.6,0.4,1.3,0.4,1.9c0,1.1-0.3,2-0.9,2.8c-0.6,0.8-1.3,1.4-2.3,1.8v0c1.1,0.2,2.1,0.7,2.8,1.5c0.7,0.8,1,1.8,1,3
			C191.3,40.9,191.1,41.7,190.8,42.4z"/>
	</g>
	<linearGradient id="SVGID_2_" gradientUnits="userSpaceOnUse" x1="35.227" y1="49.5122" x2="99.3164" y2="113.6016">
		<stop  offset="0" style="stop-color:#ED882B"/>
		<stop  offset="0.435" style="stop-color:#ED8529"/>
		<stop  offset="0.7788" style="stop-color:#EF7B24"/>
		<stop  offset="1" style="stop-color:#F0701E"/>
	</linearGradient>
	<polygon class="st3" points="34.9,142.8 34.9,49.9 129.2,49.9 129.2,83.7 70.1,83.7 70.1,142.8 	"/>
	<linearGradient id="SVGID_3_" gradientUnits="userSpaceOnUse" x1="77.9343" y1="95.0588" x2="179.5891" y2="196.7136">
		<stop  offset="0" style="stop-color:#ED882B"/>
		<stop  offset="0.435" style="stop-color:#ED8529"/>
		<stop  offset="0.7788" style="stop-color:#EF7B24"/>
		<stop  offset="1" style="stop-color:#F0701E"/>
	</linearGradient>
	<polygon class="st4" points="11.4,161.6 47.6,193.5 182.8,193.5 182.8,66.8 147.6,36.3 147.6,161.6 	"/>
</g>
<g>
</g>
<g>
</g>
<g>
</g>
<g>
</g>
<g>
</g>
<g>
</g>
<g>
</g>
<g>
</g>
<g>
</g>
<g>
</g>
<g>
</g>
<g>
</g>
<g>
</g>
<g>
</g>
<g>
</g>
</svg>
